<?xml version="1.0" encoding="utf-8"?>
<!-- Generator: Adobe Illustrator 24.2.3, SVG Export Plug-In . SVG Version: 6.00 Build 0)  -->
<svg version="1.1" id="Layer_1" xmlns="http://www.w3.org/2000/svg" xmlns:xlink="http://www.w3.org/1999/xlink" x="0px" y="0px"
	 viewBox="0 0 22 22" style="enable-background:new 0 0 22 22;" xml:space="preserve">
<style type="text/css">
	.st0{opacity:0.87;}
	.st1{fill-rule:evenodd;clip-rule:evenodd;}
</style>
<g class="st0">
	<path class="st1" d="M7.7,3.9C6.5,4.1,5.1,4.7,5.1,4.7c0.7-0.9,2-2,2-2C6.8,2,6.5,0.9,6.5,0.9S8,1,9.2,1.4c0,0,2.1-1.1,4.2-1.2
		c0,0-1.6,0.9-2.2,1.8c0.2,0.1,1.4,0.5,2.4,1c0,0-1.8,0.1-3.4,0.3c0,0-0.6,0.8-1.1,2.6C9.2,5.9,8.4,5,7.7,3.9z"/>
	<path class="st1" d="M16.1,5.4C15.1,4.2,13.6,3,13.6,3c1.3,0,3.3,0.8,3.3,0.8c0.4-0.7,0.6-1.7,0.6-1.7s0.7,1.3,1.1,2.7
		c0,0,1.5,0.9,2.7,2.5c0,0-1.2-0.3-2.1-0.2c0,0.2,0.3,1.8,0.3,3c0,0-1-1.6-1.9-3c0,0-1.5,0-3.1,0.5C14.5,7.5,15.4,6.5,16.1,5.4z
		 M17.9,13.1c0.8-1.3,1.6-3.2,1.6-3.2c0.3,1.2,0.3,2.8,0.3,2.8c0.8-0.2,2.2-0.8,2.2-0.8s-0.6,1.6-2,2.9c0,0,0.1,1,0.2,2.3
		c0,0-1-0.4-1.8-0.9c-0.2,0.1-1.2,0.8-2.8,1.1c0,0,0.7-1.1,1.3-2.2c0,0-1.2-0.8-2.1-2C14.7,13.1,16.5,13.4,17.9,13.1z"/>
	<path class="st1" d="M12.3,10.4c1.2,1.5,2.4,2.7,2.4,2.7c-2-0.3-3.6-0.9-3.6-0.9c-0.8,1.3-1.7,2.8-1.7,2.8s-0.5-1.6-0.6-3.5
		c0,0-1-0.4-2.9-1.1c0,0,1.3-0.8,2.8-1.2C8.7,9.1,8.9,6.9,9.2,5.9c0,0,0.9,1.5,1.6,2.5c0,0,1.4-0.5,3.7-1C14.5,7.5,13.3,9,12.3,10.4
		z M1.3,16.1c-0.1-0.2-0.2-0.5-0.3-0.7c0-0.8,0.1-1.8,0.3-2.6c0,0-0.6-0.4-1.2-0.9c0-0.1,0-0.2,0-0.3c0.3-0.1,1.1-0.4,1.7-0.5
		C1.8,10.8,2.2,9.6,3,8.7c0,0,0.1,0.9,0.3,2c0,0,1.2-0.3,2.7-0.2c0,0-1.4,1.1-2.2,2.2c0.3,1.3,0.9,2.5,0.9,2.5
		c-0.9-0.5-1.9-1.2-1.9-1.2C2.4,14.3,1.7,15.4,1.3,16.1z M9,21.8c-0.2,0-0.3-0.1-0.5-0.1c-0.5-0.5-1.3-1.4-1.9-2.4
		c0,0-2.2-0.2-3.7-0.9c0,0,1.3-0.2,2.7-1c-0.1-0.2-0.6-1.2-1-2.4c0,0,1.3,1.1,2.3,1.7c0,0,1.3-0.7,2.4-1.7c0,0-0.3,1.4-0.4,3
		c0.7,0.4,1.5,0.8,2.2,1.2c-1.1,0.2-2.3,0.1-2.3,0.1C8.8,20.3,8.9,21.3,9,21.8z M18.6,19c0,0-1.5,0.4-3,0.5c0,0,0-1-0.1-2.1
		c0,0-0.8,1.1-1.8,2.2c-1.2,0-2.6-0.2-2.6-0.2c0.5,0.5,0.9,0.9,1.4,1.4c-0.9,0.8-1.8,1.3-1.8,1.3c0.1,0,0.2,0,0.4,0
		C14.1,21.9,16.6,20.8,18.6,19z"/>
	<path class="st1" d="M0.1,9.1c0,0,0.8-1,1.8-1.8c0,0,0.3,0.6,1.1,1.4c0,0,0-0.9,0.1-2.4c0.9-0.8,2.1-1.6,2.1-1.6
		c-1-0.1-1.7,0-1.7,0c0.2-1.1,0.7-2.3,0.7-2.3C2.1,4,0.6,6.4,0.1,9.1z"/>
</g>
</svg>
