<?xml version="1.0" encoding="utf-8"?>
<!-- Generator: Adobe Illustrator 24.2.3, SVG Export Plug-In . SVG Version: 6.00 Build 0)  -->
<svg version="1.1" id="Layer_1" xmlns="http://www.w3.org/2000/svg" xmlns:xlink="http://www.w3.org/1999/xlink" x="0px" y="0px"
	 viewBox="0 0 22 22" style="enable-background:new 0 0 22 22;" xml:space="preserve">
<style type="text/css">
	.st0{opacity:0.87;}
	.st1{fill:#FFFFFF;}
	.st2{fill:#951B80;}
	.st3{fill:#E40613;}
	.st4{fill:#01509F;}
	.st5{fill:#F28800;}
	.st6{fill:#1D1D1B;}
	.st7{fill:#0090D7;}
	.st8{fill:#FEED01;}
	.st9{fill:#00963F;}
</style>
<g class="st0">
	<path class="st1" d="M8,9.3c0.4-0.7,1.1-1.2,1.9-1.4C9.7,8,9.6,8.1,9.5,8.2c0.4-0.1,0.8,0,1.2,0.2c0,0.3,0.1,0.7,0.1,1
		c0-0.3,0.1-0.7,0.1-1c0.4-0.2,0.8-0.2,1.1-0.2l0,0c0,0,0,0,0,0C12,8.1,11.9,8,11.7,7.9c0.8,0.2,1.4,0.7,1.9,1.4
		c-0.1-0.1-0.3-0.2-0.4-0.2c0.2,0.4,0.3,0.8,0.2,1.1c-0.3,0.1-0.6,0.3-1,0.4c0.3-0.1,0.7-0.1,1-0.2c0.3,0.3,0.4,0.7,0.5,1.1
		c0.1-0.1,0.2-0.3,0.2-0.4c0,0.8-0.2,1.6-0.7,2.2c0-0.1,0.1-0.3,0.1-0.4c-0.3,0.3-0.6,0.5-1,0.6c-0.2-0.3-0.5-0.5-0.7-0.8
		c0.2,0.3,0.3,0.6,0.5,0.9c-0.2,0.3-0.5,0.6-0.9,0.8c0.2,0,0.3,0.1,0.5,0.1c-0.7,0.3-1.5,0.3-2.3,0c0.2,0,0.3,0,0.5-0.1
		c-0.4-0.2-0.7-0.5-0.9-0.8c0.2-0.3,0.4-0.6,0.5-0.9c-0.3,0.3-0.5,0.5-0.7,0.8c-0.4-0.1-0.7-0.3-1-0.6c0,0.2,0,0.3,0.1,0.5
		c-0.5-0.6-0.7-1.4-0.7-2.2c0.1,0.2,0.1,0.3,0.2,0.4c0.1-0.4,0.2-0.8,0.5-1.1c0.3,0.1,0.7,0.1,1,0.2c-0.3-0.2-0.6-0.3-1-0.4
		c0-0.4,0-0.8,0.2-1.1C8.3,9.1,8.1,9.2,8,9.3z M10.8,9.6c-0.5,0.4-1,0.7-1.5,1.1c0.2,0.6,0.4,1.2,0.6,1.7c0.6,0,1.2,0,1.8,0
		c0.2-0.6,0.4-1.2,0.6-1.7C11.8,10.3,11.3,9.9,10.8,9.6z"/>
	<path class="st2" d="M9.9,0L9.9,0C10,0,10,0.1,10,0.1c0.3,1.4,0.5,2.9,0.8,4.3c0,0.1,0,0.2-0.1,0.2c-0.5,0.1-1.1,0.3-1.6,0.5
		C8.4,5.6,7.7,6.3,7.2,7.1c0,0.1-0.1,0.1-0.1,0.1C7,7.2,6.9,7.1,6.9,7.1C5.7,6.4,4.4,5.6,3.2,4.9c-0.1,0-0.1-0.1-0.1-0.1
		c0-0.1,0.1-0.2,0.1-0.3c0.9-1.6,2.3-2.9,4-3.7C8.1,0.5,9,0.2,9.9,0z"/>
	<path class="st3" d="M12.3,1.1c1.3,0,2.7,0.2,3.9,0.7c1,0.4,1.9,0.9,2.6,1.6c0,0,0.1,0.1,0.1,0.1c0,0.1,0,0.1,0,0.2
		c-1,1.1-1.9,2.2-2.9,3.3c0,0-0.1,0.1-0.1,0.1c-0.1,0-0.1,0-0.1-0.1c-1.1-0.9-2.6-1.4-4-1.2c-0.1,0-0.1,0-0.2,0c0,0-0.1-0.1-0.1-0.1
		c-0.2-1.4-0.4-2.8-0.6-4.2c0-0.1,0-0.2,0-0.2c0-0.1,0.1-0.1,0.1-0.1C11.5,1.1,11.9,1.1,12.3,1.1z"/>
	<path class="st4" d="M1.5,4.9c0.1,0,0.1,0,0.2,0C3,5.6,4.3,6.3,5.5,7c0.1,0,0.1,0.1,0,0.2c-0.7,1.3-0.8,2.8-0.3,4.2
		c0,0.1,0.1,0.1,0,0.2c0,0.1-0.1,0.1-0.2,0.1c-1.3,0.5-2.7,1-4,1.6c-0.1,0-0.1,0-0.2,0c0-0.1-0.1-0.2-0.1-0.3
		c-0.7-2-0.8-4.1-0.2-6.1C0.9,6.2,1.1,5.6,1.5,4.9C1.5,5,1.5,4.9,1.5,4.9z"/>
	<path class="st5" d="M18.7,5.1c0.1,0,0.1,0,0.2,0c1.1,1.1,2,2.4,2.5,3.9c0.3,1,0.5,2,0.6,3v0.5c0,0.1,0,0.2,0,0.3
		c0,0.1-0.1,0.1-0.2,0.1c-1.5-0.1-2.9-0.1-4.4-0.2c-0.1,0-0.1-0.1-0.1-0.2c0.1-1.4-0.5-2.9-1.5-3.9c0,0-0.1-0.1-0.1-0.1
		c0-0.1,0-0.1,0.1-0.1c1-1,1.9-2,2.9-3.1C18.6,5.3,18.6,5.2,18.7,5.1z"/>
	<path class="st6" d="M10.3,7.5c1.1-0.1,2.2,0.2,2.9,0.9c0.7,0.6,1.1,1.5,1.2,2.4c0.1,0.9-0.2,1.9-0.8,2.6c-0.6,0.7-1.5,1.2-2.4,1.3
		c-1,0.1-2.1-0.2-2.9-0.9c-0.7-0.6-1.1-1.5-1.2-2.4c-0.1-0.8,0.1-1.7,0.6-2.3C8.3,8.2,9.3,7.6,10.3,7.5z M8,9.3
		C8.1,9.2,8.3,9.1,8.4,9c-0.2,0.4-0.3,0.8-0.2,1.1c0.3,0.2,0.6,0.3,1,0.4c-0.3-0.1-0.7-0.1-1-0.2c-0.3,0.3-0.4,0.7-0.5,1.1
		c-0.1-0.1-0.2-0.3-0.2-0.4c0,0.8,0.2,1.6,0.7,2.2c0-0.1-0.1-0.3-0.1-0.5c0.3,0.3,0.6,0.5,1,0.6c0.2-0.3,0.5-0.5,0.7-0.8
		c-0.2,0.3-0.3,0.6-0.5,0.9c0.2,0.3,0.5,0.6,0.9,0.8c-0.2,0-0.3,0.1-0.5,0.1c0.7,0.3,1.5,0.3,2.3,0c-0.2,0-0.3,0-0.5-0.1
		c0.4-0.2,0.7-0.5,0.9-0.8c-0.2-0.3-0.4-0.6-0.5-0.9c0.3,0.3,0.5,0.5,0.7,0.8c0.4-0.1,0.7-0.3,1-0.6c0,0.2,0,0.3-0.1,0.4
		c0.5-0.6,0.7-1.4,0.7-2.2c0,0.2-0.1,0.3-0.2,0.4c-0.1-0.4-0.2-0.8-0.5-1.1c-0.3,0.1-0.7,0.1-1,0.2c0.3-0.2,0.6-0.3,1-0.4
		c0-0.4,0-0.8-0.2-1.1c0.1,0.1,0.3,0.1,0.4,0.2c-0.4-0.7-1.1-1.2-1.9-1.4C11.9,8,12,8.1,12.1,8.2c0,0,0,0,0,0l0,0
		c-0.4-0.1-0.8,0-1.1,0.2c0,0.3-0.1,0.7-0.1,1c-0.1-0.3-0.1-0.7-0.1-1c-0.4-0.2-0.8-0.2-1.2-0.2C9.6,8.1,9.7,8,9.9,7.9
		C9.1,8.1,8.4,8.6,8,9.3z"/>
	<path class="st6" d="M10.8,9.6c0.5,0.4,1,0.7,1.5,1.1c-0.2,0.6-0.4,1.2-0.6,1.7c-0.6,0-1.2,0-1.8,0c-0.2-0.6-0.4-1.2-0.6-1.7
		C9.8,10.3,10.3,9.9,10.8,9.6z"/>
	<path class="st7" d="M4.2,12.7c0.1,0,0.2,0,0.2,0.1c0.6,1.3,1.8,2.4,3.2,2.8c0.1,0,0.2,0.1,0.1,0.2c-0.4,1.4-0.9,2.8-1.3,4.2
		c0,0.1-0.1,0.1-0.2,0.1c-1.1-0.3-2.2-0.9-3.1-1.6c-1.3-1-2.4-2.4-3-3.9v-0.1c0,0,0.1-0.1,0.1-0.1C1.5,13.8,2.9,13.3,4.2,12.7z"/>
	<path class="st8" d="M15.9,13.2c0,0,0.1,0,0.1,0c1.5,0.1,2.9,0.2,4.4,0.3c0.1,0,0.1,0.1,0.1,0.2c-0.1,1.9-0.9,3.8-2,5.3
		c-0.6,0.7-1.2,1.4-2,1.9c-0.1,0.1-0.2,0-0.2,0c-0.8-1.1-1.7-2.3-2.5-3.4c0-0.1-0.1-0.1-0.1-0.2c0-0.1,0.1-0.1,0.1-0.2
		c1.2-0.8,1.9-2.2,2-3.6C15.8,13.4,15.8,13.3,15.9,13.2z"/>
	<path class="st9" d="M12.3,16.4c0.1,0,0.1,0,0.2,0.1c0.8,1.2,1.6,2.4,2.5,3.7c0.1,0.1,0,0.2-0.1,0.2c-1.9,1.3-4.2,1.8-6.4,1.6
		c-0.6-0.1-1.1-0.2-1.7-0.3c-0.1,0-0.1-0.1-0.1-0.2C7,20,7.4,18.6,7.8,17.2c0-0.1,0.1-0.1,0.2-0.1c1.1,0.3,2.3,0.2,3.3-0.2
		C11.7,16.8,12,16.6,12.3,16.4z"/>
</g>
</svg>
