<?xml version="1.0" encoding="utf-8"?>
<!-- Generator: Adobe Illustrator 24.2.3, SVG Export Plug-In . SVG Version: 6.00 Build 0)  -->
<svg version="1.1" id="Layer_1" xmlns="http://www.w3.org/2000/svg" xmlns:xlink="http://www.w3.org/1999/xlink" x="0px" y="0px"
	 viewBox="0 0 23.5 22" style="enable-background:new 0 0 23.5 22;" xml:space="preserve">
<style type="text/css">
	.st0{opacity:0.87;}
	.st1{fill:#FFFFFF;}
	.st2{fill:#CDFB0A;}
</style>
<g class="st0">
	<path class="st1" d="M11.7,7.8C10,7.8,8.5,9.2,8.5,11c0,1.8,1.4,3.2,3.2,3.2c1.8,0,3.2-1.4,3.2-3.2C14.9,9.2,13.5,7.8,11.7,7.8z"/>
	<path class="st2" d="M18.3,3.1L15.8,7c1.1,1.5,2,3.1,2.9,4.7c-1.1,2.1-2.3,4.1-3.7,6c-2,0.2-3.9,0.2-5.9,0l-2.5,3.9
		c3.8,0.4,7.2,0.4,10.7-0.1c2.5-3.1,4.4-6.3,6.2-9.9C22.1,8.6,20.3,5.7,18.3,3.1z M4.8,10.3c1.1-2.1,2.3-4.1,3.7-6
		c2-0.2,3.9-0.2,5.9,0l2.5-3.9C13.3-0.1,9.7-0.1,6.2,0.3c-2.5,3-4.5,6.4-6.2,9.9c1.4,3.1,3.1,5.9,5.2,8.7L7.6,15
		C6.6,13.5,5.6,11.9,4.8,10.3z"/>
</g>
</svg>
