<?xml version="1.0" encoding="utf-8"?>
<!-- Generator: Adobe Illustrator 24.2.3, SVG Export Plug-In . SVG Version: 6.00 Build 0)  -->
<svg version="1.1" id="Layer_1" xmlns="http://www.w3.org/2000/svg" xmlns:xlink="http://www.w3.org/1999/xlink" x="0px" y="0px"
	 viewBox="0 0 17.3 22" style="enable-background:new 0 0 17.3 22;" xml:space="preserve">
<style type="text/css">
	.st0{opacity:0.87;fill:#360D3A;enable-background:new    ;}
</style>
<path class="st0" d="M3.4,1.8c1,0.5,1.6,1,1.7,1.1c0-0.3-0.2-1.5-0.4-2.2C5.3,1.1,6.7,2,7.1,2.3C7.3,1.8,7.9,0,7.9,0S9,1.8,9.2,2.1
	c0.2-0.2,1.5-1.7,1.9-2.1c0.1,0.8,0.1,2.1,0.2,2.2c0.1-0.1,0.6-0.8,1.4-1.5c-0.4,0.7-0.5,1.7-0.6,2.5c-0.8-0.2-1.7-0.4-2.6-0.4
	C7.7,2.9,6,3.4,4.6,4.2C4.3,3.4,4,2.4,3.4,1.8z M16.8,17.1L16,16.2c-0.2,2.3-1.3,4.2-3.4,5.6l-0.3-1.2c-1.8,1.3-4.8,2.1-7.3,0.6
	c0.3-1.6,0.6-3.3,0-5.3C3.5,18.1,2.2,19,2.2,19c-1-1.6-0.9-4.9-0.6-5.9L0,13.7c0-1.1,0.8-3.4,1.9-4.7L1,8.8c0.7-1.4,1.7-2.6,3-3.5
	C3.5,5.9,3.5,7.4,4.6,7.9c-0.5-0.8-0.5-1.8,0-2.4C5.1,5,5.9,5.2,6.4,5.6c-0.2-0.5-0.6-1-1.3-1.1c1.3-0.7,2.8-1,4.3-1
	c0.3,0,0.6,0,0.9,0c0.5,0.2,1.1,0.8,1.4,1.2c0,0,0-0.5-0.2-1c1.7,0.4,2.5,1.1,2.8,1.4c0.1,0.7,0.3,1.2,0.6,1.8
	c-0.5-0.6-1.9-1.6-2.6-1.8c0,0-0.1,0.6-0.3,0.9C10.7,5.2,10.1,5,10.1,5C8.6,5.1,7.7,5.7,7.2,6.1l0.4,0.4c-0.9,0.3-1.4,1-1.4,1
	c0,0,0.8,0.1,0.8,0.1S6.9,8.5,8,9.1c1,0.5,2.3-0.1,3.6,0.4c-0.9-1-1.4-1.4-1.4-1.4S9.9,8,9.6,8C9.3,8,8.9,8.1,8.4,7.9
	C8.2,7.8,7.9,7.6,7.7,7.5c0,0,0.6-0.6,1.5-0.8c0,0,0.8,0.2,1.4,0.7C11,7,11.5,7,11.5,7S11,7.4,11.2,7.9c0.6,0.6,1.3,1.3,1.3,1.3
	C13.2,8.9,14.7,9,15,9.3c-0.4-0.5-1-0.9-1.4-1.3c0-0.2-0.5-0.9-0.6-0.9c0,0,0.5,0.2,0.9,0.5c0.1-0.2,0.3-0.3,0.6-0.4
	c0.3,0.3,0.4,0.6,0.3,0.7c-0.1,0.2-0.3,0.2-0.3,0.2L15.2,9l0.1-0.6C17,10.8,17.9,13.6,16.8,17.1z M13.6,11.9v-1.2
	c0,0-0.6-0.2-1.2-0.6c-1.2,0.2-2.6,1.4-2.6,1.4s0.5,0.9,1,1.9C11.7,13.4,13.1,12.3,13.6,11.9z M14.8,14.1c0,0-0.1-0.5-0.5-1l-0.9,0
	c0,0-1.3,1.1-2,1.1l0.6,1.2c0.4-0.1,1.2-0.4,1.5-0.8c0,0,0.2,0.6,0.2,1.4C14,15.8,14.6,15.2,14.8,14.1z M15.1,10
	c-0.5,0.4-0.9,0.6-0.9,0.6v1.2c0.3,0.4,0.7,0.7,0.9,1.2C15.7,12.3,15.6,11.1,15.1,10z"/>
</svg>
